<svg width="5.4349mm" height="3.9893mm" viewBox="0 0 5.4349 3.9893" xmlns="http://www.w3.org/2000/svg"
                            class="h-12 w-12">
                            <g transform="translate(-42.646 -145.06)">
                                <g transform="matrix(.2061 0 0 .2061 42.646 145.06)" style="fill: #1f2221">
                                    <path
                                        d="m8 12a4 4 0 1 0 0-8 4 4 0 0 0 0 8zm0-12a0.5 0.5 0 0 1 0.5 0.5v2a0.5 0.5 0 0 1-1 0v-2a0.5 0.5 0 0 1 0.5-0.5zm0 13a0.5 0.5 0 0 1 0.5 0.5v2a0.5 0.5 0 0 1-1 0v-2a0.5 0.5 0 0 1 0.5-0.5zm8-5a0.5 0.5 0 0 1-0.5 0.5h-2a0.5 0.5 0 0 1 0-1h2a0.5 0.5 0 0 1 0.5 0.5zm-13 0a0.5 0.5 0 0 1-0.5 0.5h-2a0.5 0.5 0 0 1 0-1h2a0.5 0.5 0 0 1 0.5 0.5zm10.657-5.657a0.5 0.5 0 0 1 0 0.707l-1.414 1.415a0.50028 0.50028 0 1 1-0.707-0.708l1.414-1.414a0.5 0.5 0 0 1 0.707 0zm-9.193 9.193a0.5 0.5 0 0 1 0 0.707l-1.414 1.414a0.5 0.5 0 0 1-0.707-0.707l1.414-1.414a0.5 0.5 0 0 1 0.707 0zm9.193 2.121a0.5 0.5 0 0 1-0.707 0l-1.414-1.414a0.5 0.5 0 0 1 0.707-0.707l1.414 1.414a0.5 0.5 0 0 1 0 0.707zm-9.193-9.192a0.5 0.5 0 0 1-0.707 0l-1.414-1.415a0.5 0.5 0 1 1 0.707-0.707l1.414 1.414a0.5 0.5 0 0 1 0 0.708z"
                                        style="fill: #1f2221" />
                                </g>
                                <g transform="matrix(.26458 0 0 .26458 43.716 145.48)" style="fill: #d7d7d7; stroke: #f6f3f3">
                                    <path
                                        d="M 4.406,3.342 A 5.53,5.53 0 0 1 8,2 c 2.69,0 4.923,2 5.166,4.579 C 14.758,6.804 16,8.137 16,9.773 16,11.569 14.502,13 12.687,13 H 3.781 C 1.708,13 0,11.366 0,9.318 0,7.555 1.266,6.095 2.942,5.725 3.085,4.862 3.64,4.002 4.406,3.342 Z"
                                        style="fill: #d7d7d7; stroke: #f6f3f3" />
                                </g>
                            </g>
                        </svg>